<svg width="487" height="387" viewBox="0 0 487 387" fill="none" xmlns="http://www.w3.org/2000/svg">
<path d="M239.533 1.00001C231.4 2.86668 225.133 9.00001 222.467 17.8C221.667 20.4667 221.933 20.4667 244.333 20.4667C269.533 20.4667 269.533 20.6 264.2 11.8C260.6 5.93335 256.6 2.60001 251.667 1.66668C249.533 1.13335 246.733 0.600013 245.667 0.333347C244.6 0.200013 241.8 0.46668 239.533 1.00001Z" fill="#FE3644"/>
<path d="M213.133 31C149.4 41.4 96.3333 78.0667 64.4666 133.667C52.0666 155.267 41.5333 187.133 39.4 209.267L38.6 218.333H243.667H448.733L447.933 209.267C447.4 204.333 445.533 194.067 443.667 186.6C424.733 108.867 363.667 49.9333 284.467 32.8667C267.4 29.2667 230.067 28.2 213.133 31ZM219 46.8667C219 47.1333 215.533 49.5333 211.4 52.3333C169.267 80.0667 133.8 132.2 116.733 191.267L114.333 199.667H92.0666H69.8L71.8 192.6C73 188.867 76.2 179.667 79.1333 172.333C97.5333 125 135.533 83.9333 183 60.2C197.8 52.8667 219 45 219 46.8667Z" fill="#FE3644"/>
<path d="M83 281V333H105H127V325.667V318.333H113H99V303V287.667H109.667H120.333V280.333V273H109.667H99V258.333V243.667H113H127V236.333V229H105H83V281Z" fill="#FE3644"/>
<path d="M154.733 229.933L136.333 230.467V237V243.667H151.133C162.467 243.667 165.8 244.067 165.267 245.267C165 246.2 157.933 263 149.8 282.467C136.867 313.4 135 318.867 135 325.4V333H158.333H181.667V325.667V318.333H166.2C151.667 318.333 150.867 318.2 151.667 315.8C152.067 314.333 159 297.133 167 277.533C178.733 249 181.667 240.733 181.667 235.533V229L177.4 229.267C175 229.4 164.733 229.8 154.733 229.933Z" fill="#FE3644"/>
<path d="M215 281V333H228.067C249 332.867 255.933 330.333 261.4 320.333C263.4 316.867 263.667 311.4 263.667 281C263.667 250.6 263.4 245.133 261.4 241.667C255.933 231.667 249 229.133 228.067 229H215V281ZM245.933 245.933C248.067 247.933 248.333 250.733 248.333 280.733C248.333 318.6 248.467 318.333 237.4 318.333H231V281V243.667H237.267C241.133 243.667 244.333 244.467 245.933 245.933Z" fill="#FE3644"/>
<path d="M275 281V333H283H291V281V229H283H275V281Z" fill="#FE3644"/>
<path d="M301.667 281V333H309H316.333L316.6 295.667L317 258.2L325.533 289.267C330.2 306.333 334.867 323.133 335.933 326.6L337.8 333H345.667H353.667V281V229H347H340.333V259.933C340.333 277.933 339.8 290.333 339.133 289.533C338.467 288.867 334.867 276.867 331.133 263C327.267 249 323.533 235.667 322.867 233.267L321.4 229H311.533H301.667V281Z" fill="#FE3644"/>
<path d="M365.667 281V333H387.667H409.667V325.667V318.333H395.667H381.667V303V287.667H392.333H403V280.333V273H392.333H381.667V258.333V243.667H395.667H409.667V236.333V229H387.667H365.667V281Z" fill="#FE3644"/>
<path d="M9.53331 350.733C-2.73336 358.867 -2.46669 374.867 10.0666 384.2L13.8 387H243.667H473.533L477.267 384.2C489.8 374.867 490.067 358.867 477.8 350.733L473.267 347.667H243.667H14.0666L9.53331 350.733Z" fill="#FE3644"/>
</svg>
